<svg width="499" height="423" viewBox="0 0 499 423" fill="none" xmlns="http://www.w3.org/2000/svg">
<g clip-path="url(#clip0_11_569)">
<path d="M199.682 40.8015C193.602 52.502 205.05 72.2166 193.513 76.3104L194.463 75.2486C201.427 65.6785 186.871 45.4229 193.835 35.8528C194.917 34.449 195.846 32.9065 196.602 31.2578" fill="#2F2E41"/>
<path d="M256.618 212.456C256.817 211.285 256.784 210.08 256.521 208.925C256.259 207.77 255.772 206.693 255.097 205.771C254.421 204.848 253.573 204.102 252.611 203.586C251.65 203.069 250.599 202.795 249.532 202.781L234.504 154.005L226.186 165.85L242.075 211.425C242.173 213.429 242.926 215.323 244.191 216.748C245.455 218.173 247.144 219.03 248.936 219.157C250.729 219.284 252.501 218.672 253.917 217.437C255.332 216.202 256.293 214.43 256.618 212.456Z" fill="#FFB8B8"/>
<path d="M190.56 94.6923C190.56 94.6923 190.092 77.036 204.225 87.1506C218.358 97.2652 249.129 192.014 249.129 192.014L233.816 201.269L199.053 114.564L190.56 94.6923Z" fill="#6C63FF"/>
<path d="M232.256 397.308L225.198 400.677L210.208 371.871L220.624 366.898L232.256 397.308Z" fill="#FFB6B6"/>
<path d="M241.205 409.19L236.144 411.606L233.199 406.699L232.927 413.142L219.504 419.55C218.861 419.857 218.146 419.926 217.465 419.748C216.784 419.569 216.172 419.152 215.718 418.557C215.264 417.963 214.992 417.221 214.942 416.441C214.892 415.662 215.066 414.885 215.439 414.224L222.995 400.836L220.931 395.439L232.493 390.809L241.205 409.19Z" fill="#2F2E41"/>
<path d="M121.626 407.079L113.96 406.661L111.757 373.431L123.071 374.049L121.626 407.079Z" fill="#FFB6B6"/>
<path d="M125.023 422.138L119.525 421.838L118.798 415.986L116.031 421.647L101.451 420.851C100.753 420.813 100.083 420.526 99.5402 420.033C98.9975 419.539 98.6102 418.865 98.4348 418.108C98.2594 417.351 98.3052 416.552 98.5654 415.826C98.8256 415.101 99.2866 414.487 99.8811 414.075L111.917 405.727L112.173 399.866L124.384 401.351L125.023 422.138Z" fill="#2F2E41"/>
<path d="M347.48 401.785C347.988 401.806 348.489 401.651 348.916 401.343C349.343 401.035 349.674 400.588 349.866 400.062C350.057 399.536 350.099 398.957 349.987 398.404C349.874 397.851 349.612 397.349 349.235 396.968C349.17 396.691 349.124 396.492 349.059 396.216C349.533 394.832 350.366 393.638 351.451 392.787C352.536 391.936 353.825 391.466 355.15 391.438C356.476 391.41 357.779 391.825 358.893 392.629C360.006 393.434 360.879 394.592 361.4 395.954C364.402 403.602 368.27 411.511 366.452 419.99C378.685 390.296 374.126 353.57 355.459 328.486C350.332 325.401 346.151 319.869 345.02 313.406C347.552 314.334 350.679 312.007 348.756 309.057C347.924 307.93 347.084 306.813 346.251 305.686C355.742 294.177 367.32 311.984 356.897 327.493C360.391 332.292 363.426 337.486 365.953 342.99C365.33 337.124 365.963 331.176 367.799 325.636C369.664 320.472 373.205 316.101 376.318 311.62C380.102 306.161 388.008 308.577 388.582 315.448C385.058 316.784 384.647 322.493 388.698 323.231C387.747 336.035 380.367 347.871 370.111 353.591C374.018 365.478 375.612 378.158 374.787 390.787C376.48 376.02 390.62 372.29 400.474 366.323C401.101 365.865 401.833 365.62 402.582 365.619C403.331 365.617 404.064 365.86 404.692 366.316C405.32 366.772 405.815 367.423 406.118 368.188C406.42 368.953 406.517 369.801 406.396 370.626C405.034 371.262 403.732 372.047 402.509 372.97C401.936 373.409 401.499 374.036 401.257 374.763C401.015 375.491 400.981 376.285 401.159 377.035C401.337 377.785 401.718 378.456 402.25 378.955C402.783 379.454 403.44 379.757 404.132 379.822C399.258 393.679 386.429 403.086 373.171 403.174C371.95 409.373 370.156 415.412 367.817 421.196L348.141 421.406C348.068 421.162 348.002 420.911 347.937 420.667C349.759 420.776 351.586 420.635 353.378 420.247C348.505 413.925 344.752 410.712 347.48 401.785Z" fill="#F2F2F2"/>
<path d="M140.99 191.074C140.99 191.074 125.402 238.533 125.15 243.843C124.898 249.154 120.452 316.314 116.724 320.216C112.996 324.118 101.597 384.617 110.466 389.349C119.336 394.081 147.317 386.242 147.317 386.242L157.052 314.779L160.359 260.029C160.359 260.029 170.426 388.955 188.685 388.575C206.944 388.196 229.194 380.428 229.194 380.428L203.637 302.35C203.637 302.35 203.999 209.916 198.075 191.272C192.151 172.629 140.99 191.074 140.99 191.074Z" fill="#2F2E41"/>
<path d="M187.245 68.8023L166.368 70.9384L163.005 82.4718C163.005 82.4718 145.535 93.1904 149.403 98.06C153.272 102.93 148.538 135.746 148.538 135.746L149.608 162.384C149.608 162.384 148.459 180.839 145.022 185.091C141.585 189.343 132.594 199.77 138.947 194.781C161.224 177.291 200.161 192.049 200.161 192.049L194.598 153.987C194.598 153.987 207.233 91.6713 202.247 86.4084C197.261 81.1456 192.556 80.4804 192.556 80.4804L187.245 68.8023Z" fill="#6C63FF"/>
<path d="M77.5501 189.534C78.5989 189.316 79.5922 188.843 80.4599 188.15C81.3276 187.457 82.0487 186.559 82.5723 185.521C83.0959 184.482 83.4094 183.328 83.4906 182.14C83.5718 180.951 83.4188 179.758 83.0423 178.642L118.252 145.271L105.351 140.92L73.1229 174.024C71.4879 174.855 70.1824 176.327 69.4539 178.161C68.7253 179.995 68.6244 182.064 69.1701 183.976C69.7158 185.888 70.8703 187.509 72.4148 188.534C73.9593 189.558 75.7864 189.914 77.5501 189.534Z" fill="#FFB8B8"/>
<path d="M166.97 102.242C166.97 102.242 173.908 86.3695 157.3 89.0809C140.692 91.7923 77.7119 163.963 77.7119 163.963L88.2517 179.445L151.903 116.44L166.97 102.242Z" fill="#6C63FF"/>
<path d="M139.925 75.3184L74.0777 169.561C72.9386 171.196 72.4263 173.27 72.6532 175.327C72.8801 177.384 73.8277 179.256 75.2882 180.534C90.5796 222.012 136.327 252.771 190.143 280.689C191.607 281.963 193.463 282.536 195.305 282.282C197.146 282.029 198.822 280.969 199.965 279.337L265.812 185.094C266.953 183.459 267.466 181.385 267.239 179.328C267.012 177.271 266.063 175.398 264.602 174.121C219.44 145.632 180.624 112.626 149.747 73.9661C148.283 72.6935 146.427 72.1213 144.586 72.3748C142.745 72.6283 141.069 73.6868 139.925 75.3184Z" fill="#E6E6E6"/>
<path d="M261.191 182.95L241.148 211.637C228.904 229.055 210.988 240.352 191.313 243.061C171.638 245.769 151.803 239.67 136.141 226.094L79.9705 177.113C79.1384 176.387 78.598 175.322 78.4679 174.151C78.3378 172.981 78.6285 171.801 79.2764 170.869L142.905 79.8028C143.556 78.8746 144.51 78.2729 145.558 78.1298C146.606 77.9866 147.662 78.3137 148.494 79.0393C176.908 120.029 214.943 151.927 260.503 176.712C261.333 177.438 261.872 178.503 262.001 179.672C262.13 180.842 261.839 182.021 261.191 182.95Z" fill="white"/>
<path d="M138.611 126.766L125.558 145.448C125.212 145.943 124.703 146.264 124.145 146.34C123.587 146.417 123.025 146.243 122.581 145.856C122.138 145.47 121.85 144.902 121.781 144.279C121.712 143.655 121.868 143.027 122.213 142.531L135.267 123.849C135.438 123.604 135.651 123.398 135.893 123.244C136.136 123.091 136.403 122.992 136.68 122.954C136.956 122.916 137.237 122.939 137.506 123.022C137.774 123.105 138.026 123.246 138.245 123.438C138.465 123.629 138.649 123.867 138.786 124.138C138.924 124.409 139.012 124.708 139.046 125.017C139.08 125.326 139.059 125.64 138.984 125.94C138.91 126.24 138.783 126.52 138.611 126.766Z" fill="#CCCCCC"/>
<path d="M163.095 112.908L134.429 153.935C134.258 154.181 134.045 154.386 133.802 154.539C133.56 154.693 133.293 154.791 133.016 154.829C132.74 154.867 132.459 154.844 132.191 154.761C131.922 154.678 131.671 154.537 131.452 154.345C131.232 154.154 131.048 153.916 130.911 153.645C130.774 153.374 130.686 153.076 130.651 152.767C130.617 152.458 130.638 152.145 130.712 151.845C130.787 151.545 130.913 151.264 131.085 151.019L159.751 109.991C159.922 109.745 160.135 109.54 160.377 109.386C160.62 109.232 160.887 109.133 161.164 109.094C161.441 109.056 161.721 109.079 161.99 109.162C162.259 109.245 162.511 109.387 162.73 109.578C162.95 109.77 163.134 110.008 163.271 110.279C163.409 110.551 163.497 110.849 163.531 111.159C163.565 111.468 163.544 111.781 163.469 112.082C163.394 112.382 163.267 112.663 163.095 112.908Z" fill="#CCCCCC"/>
<path d="M114.204 181.341C121.921 181.341 128.177 174.353 128.177 165.731C128.177 157.11 121.921 150.121 114.204 150.121C106.488 150.121 100.232 157.11 100.232 165.731C100.232 174.353 106.488 181.341 114.204 181.341Z" fill="#6C63FF"/>
<path d="M164.617 145.333L129.41 195.723C129.042 196.141 128.55 196.394 128.027 196.432C127.503 196.471 126.986 196.293 126.572 195.932C126.159 195.572 125.879 195.054 125.785 194.478C125.692 193.901 125.791 193.307 126.065 192.807L161.273 142.417C161.64 141.999 162.132 141.747 162.655 141.708C163.179 141.669 163.696 141.847 164.11 142.208C164.523 142.568 164.803 143.086 164.897 143.662C164.99 144.239 164.891 144.834 164.617 145.333Z" fill="#CCCCCC"/>
<path d="M187.457 133.828L138.316 204.161C137.948 204.579 137.456 204.831 136.933 204.87C136.41 204.908 135.892 204.73 135.479 204.37C135.065 204.009 134.785 203.491 134.691 202.915C134.598 202.339 134.698 201.744 134.971 201.244L184.112 130.912C184.48 130.494 184.972 130.242 185.495 130.203C186.019 130.164 186.536 130.342 186.95 130.703C187.363 131.063 187.643 131.581 187.737 132.158C187.83 132.734 187.731 133.329 187.457 133.828Z" fill="#CCCCCC"/>
<path d="M187.287 165.101L152.079 215.491C151.712 215.909 151.219 216.162 150.696 216.2C150.173 216.239 149.655 216.061 149.242 215.7C148.828 215.34 148.548 214.822 148.455 214.246C148.361 213.669 148.461 213.075 148.734 212.575L183.942 162.185C184.309 161.767 184.802 161.514 185.325 161.476C185.848 161.437 186.366 161.615 186.779 161.976C187.193 162.336 187.473 162.854 187.566 163.43C187.66 164.007 187.56 164.602 187.287 165.101Z" fill="#CCCCCC"/>
<path d="M233.872 171.315L198.664 221.706C198.297 222.124 197.805 222.376 197.281 222.414C196.758 222.453 196.241 222.275 195.827 221.915C195.414 221.554 195.134 221.036 195.04 220.46C194.947 219.883 195.046 219.289 195.32 218.789L230.527 168.399C230.895 167.981 231.387 167.729 231.91 167.69C232.434 167.652 232.951 167.829 233.365 168.19C233.778 168.55 234.058 169.068 234.152 169.645C234.245 170.221 234.146 170.816 233.872 171.315Z" fill="#6C63FF"/>
<path d="M210.126 153.596L160.985 223.929C160.618 224.347 160.126 224.599 159.602 224.638C159.079 224.676 158.561 224.498 158.148 224.138C157.735 223.777 157.454 223.259 157.361 222.683C157.267 222.107 157.367 221.512 157.641 221.012L206.782 150.68C207.149 150.262 207.642 150.01 208.165 149.971C208.688 149.932 209.206 150.11 209.619 150.471C210.032 150.831 210.313 151.349 210.406 151.926C210.5 152.502 210.4 153.097 210.126 153.596Z" fill="#CCCCCC"/>
<path d="M152.245 39.0277C152.244 42.8197 153.076 46.5539 154.668 49.9028C156.26 53.2517 158.564 56.1127 161.377 58.2347C164.19 60.3567 167.426 61.6749 170.801 62.0735C174.177 62.4721 177.588 61.9389 180.736 60.5207C183.884 59.1026 186.672 56.8428 188.856 53.9398C191.04 51.0368 192.552 47.5794 193.261 43.871C193.969 40.1625 193.852 36.3166 192.919 32.6706C191.986 29.0247 190.267 25.6902 187.911 22.9601L187.812 22.849C187.646 22.6543 187.48 22.4598 187.306 22.2744C187.304 22.2744 187.303 22.2742 187.302 22.2737C187.301 22.2733 187.3 22.2726 187.3 22.2717C187.299 22.2708 187.298 22.2698 187.298 22.2687C187.297 22.2675 187.297 22.2663 187.297 22.2651C187.082 22.0427 186.866 21.8203 186.642 21.6072C183.646 18.6725 179.956 16.7647 176.014 16.1123C172.072 15.4599 168.045 16.0904 164.416 17.9285C160.787 19.7666 157.709 22.7343 155.55 26.4763C153.392 30.2183 152.244 34.576 152.245 39.0277Z" fill="#2F2E41"/>
<path d="M178.09 63.8128C187.693 63.8128 195.478 55.1158 195.478 44.3876C195.478 33.6593 187.693 24.9623 178.09 24.9623C168.487 24.9623 160.702 33.6593 160.702 44.3876C160.702 55.1158 168.487 63.8128 178.09 63.8128Z" fill="#FFB8B8"/>
<path d="M159.553 49.5643C157.854 41.0077 160.31 31.4214 165.666 25.709C168.36 22.8927 171.711 20.9826 175.333 20.1983C178.955 19.414 182.701 19.7872 186.142 21.2752C186.579 21.4724 187.016 21.6882 187.446 21.9135L187.645 22.0186V22.0512C187.684 22.0812 187.723 22.1127 187.761 22.1445C187.842 22.2294 187.941 22.2903 188.049 22.3216C189.558 22.2775 191.059 22.5903 192.453 23.2395C193.847 23.8886 195.103 24.8596 196.138 26.0886C198.833 29.3554 200.102 34.6347 199.713 40.9539L199.7 41.1515L199.55 41.2565C197.509 42.701 195.392 44.0051 193.21 45.1616C185.576 49.1714 178.608 49.9144 171.91 47.4301L171.787 47.3846L168.976 42.1213C168.399 45.7514 168.707 57.7923 165.395 58.4447L159.625 49.9273L159.553 49.5643Z" fill="#2F2E41"/>
<path d="M122.95 66.4777C128.867 63.0658 121.257 50.6826 122.786 43.4424C124.316 36.2023 135.328 33.8736 136.029 26.4761C136.731 19.0785 138.381 11.4487 142.751 5.83534C145.543 2.24843 149.657 -0.399558 153.893 0.049726C155.326 0.201735 156.713 0.697039 157.959 1.5019C159.206 2.30677 160.282 3.40229 161.116 4.71384C161.949 6.02539 162.519 7.52216 162.788 9.10221C163.057 10.6823 163.018 12.3085 162.673 13.8701C163.879 11.961 167 12.3747 167.773 14.5463C168.46 16.4768 166.943 18.8152 165.157 18.986C162.82 22.2096 160.145 25.6306 156.484 26.2809C155.901 26.4306 155.295 26.4302 154.712 26.2798C154.129 26.1295 153.584 25.8331 153.118 25.413C152.257 24.4891 152.19 22.642 153.212 21.9515C148.612 23.993 145.914 29.5496 145.232 35.0266C144.549 40.5036 145.494 46.0453 146.116 51.5312C146.738 57.0172 147.006 62.7882 145.081 67.8826C142.806 73.9017 137.568 78.2157 131.853 79.5991C126.137 80.9826 120.049 79.6305 114.876 76.5841C109.702 73.5375 105.387 68.8868 101.863 63.6727C107.934 68.4889 116.334 70.2931 122.95 66.4777Z" fill="#2F2E41"/>
<path d="M169.784 43.1318C163.704 54.8323 175.152 74.5469 163.614 78.6407L164.565 77.5789C171.529 68.0088 156.973 47.7532 163.937 38.1832C165.019 36.7793 165.948 35.2368 166.704 33.5881" fill="#2F2E41"/>
<path d="M160.365 49.3873C160.365 49.3873 165.516 27.9083 187.596 22.9508C187.621 22.9416 187.704 22.9045 187.811 22.849C187.878 22.8026 187.961 22.7562 188.044 22.7099C187.795 22.5524 187.554 22.4135 187.305 22.2743L187.302 22.2737L187.3 22.2717L187.298 22.2686L187.297 22.2651C187.082 22.0427 186.866 21.8203 186.642 21.6072L186.012 21.635C186.012 21.635 163.857 17.7155 160.365 49.3873Z" fill="#FD6584"/>
<path d="M3.6827e-06 422.076C-0.000321301 422.197 0.0208657 422.317 0.0623346 422.43C0.103804 422.542 0.164744 422.644 0.241646 422.73C0.318548 422.816 0.40989 422.884 0.510428 422.93C0.610966 422.977 0.718709 423 0.827461 423H498.173C498.392 423 498.603 422.903 498.758 422.729C498.913 422.556 499 422.321 499 422.076C499 421.83 498.913 421.595 498.758 421.422C498.603 421.249 498.392 421.151 498.173 421.151H0.827419C0.718672 421.151 0.610938 421.175 0.510407 421.221C0.409875 421.267 0.318532 421.335 0.241636 421.421C0.164739 421.507 0.103803 421.609 0.0623346 421.721C0.0208667 421.834 -0.00031666 421.954 3.6827e-06 422.076Z" fill="#CCCCCC"/>
</g>
<defs>
<clipPath id="clip0_11_569">
<rect width="499" height="423" fill="white"/>
</clipPath>
</defs>
</svg>
